<svg xmlns="http://www.w3.org/2000/svg" xmlns:xlink="http://www.w3.org/1999/xlink" width="128" height="47" viewBox="0 0 128 47"><defs><path id="fb0ea" d="M1002.329 7067.85c-.127-2.474-.085-4.947-.127-7.377 0-1.151 0-2.345-.085-3.496 0-.214.042-.299.254-.299h1.187c.212 0 .297.043.297.256-.127 3.496-.085 6.993-.085 10.532 0 .895.042 1.748.085 2.643 0 .256-.085.299-.297.299-.466 0-1.017.128-1.399-.043-.381-.17-.593-.682-.89-1.066a1565.64 1565.64 0 0 0-7.671-9.935c-.043-.042-.085-.128-.127-.17-.085.042-.085.085-.085.128.127 2.771.085 5.543.127 8.314 0 .81.042 1.62.085 2.43 0 .214 0 .299-.255.299-.423-.043-.805 0-1.229 0-.212 0-.254-.043-.254-.256.085-1.663.085-3.283.085-4.946 0-2.729.042-5.458-.085-8.186 0-.214.042-.341.297-.299.424.043.805 0 1.229 0 .17 0 .254.043.381.17 2.755 3.582 5.468 7.121 8.223 10.703.085.128.17.213.254.341.042-.043.042-.043.085-.043z"/><path id="fb0eb" d="M962.112 7068.143c-1.483 2.004-3.602 2.345-5.891 2.174-1.568-.085-2.967-.64-4.111-1.79-.933-.981-1.484-2.132-1.696-3.454-.297-1.663-.212-3.326.424-4.903.763-1.92 2.162-3.156 4.196-3.625 1.865-.426 3.73-.34 5.51.427 1.865.767 2.84 2.515 2.585 4.562-.042.17-.084.256-.254.213h-1.102c-.212 0-.254-.043-.254-.256.042-.64 0-1.279-.254-1.833-.34-.725-.933-1.237-1.653-1.535-1.526-.64-3.094-.682-4.663-.085-1.356.511-2.204 1.535-2.628 2.942-.508 1.748-.508 3.453.128 5.159.678 1.79 2.034 2.771 3.941 2.942 1.102.128 2.162 0 3.18-.426 1.398-.597 2.16-1.877 2.034-3.369 0-.213-.128-.213-.255-.213h-3.687c-.254 0-.34-.085-.297-.341.043-.299-.085-.682.043-.853.17-.17.55-.043.847-.043h4.62c.254 0 .297.043.297.299 0 1.961.042 3.923.085 5.927 0 .17-.043.213-.212.213-.848.042-.848.042-.848-.81 0-.384-.042-.81-.042-1.194 0-.086-.043-.128-.043-.128z"/><path id="fb0ec" d="M1021.277 7063.495c-.042-2.175-.042-4.35-.127-6.524 0-.256.042-.341.34-.341h9.705c.297 0 .381.085.34.341-.043.256 0 .512 0 .725 0 .17-.043.213-.213.213h-8.053c-.254 0-.296.043-.296.299v4.178c0 .256.042.341.339.341h7.078c.254 0 .339.043.254.299-.042.256-.085.511-.085.767 0 .213-.084.256-.296.256h-7.036c-.17 0-.212.043-.212.213v4.435c0 .255.085.255.297.255h7.925c.297 0 .382.086.382.384-.043.256 0 .512 0 .768 0 .128-.043.213-.17.17h-9.875c-.254 0-.34-.085-.34-.34.043-2.09.043-4.265.043-6.44z"/><path id="fb0ed" d="M1013.568 7064.132c0-1.962-.042-3.923-.085-5.927 0-.213-.042-.299-.297-.299h-4.577c-.212 0-.297-.042-.254-.298.042-.341-.128-.768.042-.98.17-.214.636-.043.975-.043h10.638c.297 0 .382.085.34.34a1.846 1.846 0 0 0 0 .683c.042.256-.085.298-.297.298h-4.45c-.34 0-.382.086-.382.384-.085 3.88-.043 7.803.042 11.683 0 .256-.042.341-.339.341-.424-.043-.848 0-1.271 0-.212 0-.255-.085-.255-.256.085-1.961.127-3.922.17-5.926z"/><path id="fb0ee" d="M1006.015 7063.492c0-2.174 0-4.349-.085-6.524 0-.213.042-.298.297-.298.424.043.89 0 1.314 0 .211 0 .254.043.254.256-.043 1.876-.085 3.752-.085 5.67 0 2.516 0 4.99.085 7.505 0 .213-.043.298-.297.298-.424-.042-.848 0-1.271 0-.255 0-.297-.042-.297-.298.042-1.919.085-3.837.085-5.756v-.853z"/><path id="fb0ef" d="M970.332 7063.329h-2.628c-.211 0-.254-.043-.254-.256v-4.86c0-.214.085-.256.254-.256h4.408c.424 0 .848.042 1.23.085 1.356.256 1.95.895 1.992 2.302 0 .341 0 .682-.043 1.024-.212 1.066-.932 1.662-2.204 1.833-.932.17-1.907.085-2.755.128zm6.951 6.822c-.127-.597-.17-1.151-.212-1.748-.042-.682 0-1.365-.084-2.004-.17-1.109-.721-1.876-1.823-2.217-.254-.086-.509-.128-.763-.17l.043-.044c.084-.042.169-.042.296-.042 1.102-.256 1.823-.896 2.162-1.962.254-.81.254-1.662.127-2.473-.212-1.15-.89-1.918-1.95-2.345a5.843 5.843 0 0 0-2.246-.426h-6.866c-.212 0-.255.085-.212.256.042.597.042 1.194.042 1.748a203.9 203.9 0 0 1-.042 11.384c0 .256.085.299.296.299.382 0 .806-.043 1.187 0 .297 0 .382-.043.382-.341-.043-1.706-.043-3.369-.085-5.074 0-.256.085-.299.297-.299h2.204c.974 0 1.992-.085 2.966.086 1.484.213 2.332.81 2.374 2.515 0 .98 0 1.962.085 2.942 0 .17.042.213.254.213h1.441c.127-.085.17-.17.127-.298z"/><path id="fb0eg" d="M986.562 7064.944h-4.747c.89-2.26 1.695-4.52 2.543-6.864.17.469.339.895.466 1.279.593 1.748 1.229 3.539 1.907 5.287.085.213.127.298-.17.298zm4.153 4.99c-.847-1.962-1.695-3.924-2.5-5.928a204.348 204.348 0 0 1-2.67-7.12c-.085-.17-.17-.256-.34-.256h-1.483c-.254 0-.34.085-.382.298-1.314 3.625-2.67 7.249-4.196 10.745-.381.896-.763 1.748-1.144 2.644h1.483c.212 0 .297-.043.382-.256.466-1.194.975-2.43 1.441-3.624.085-.17.17-.256.381-.256h5.426c.211 0 .339.043.423.256.467 1.236.975 2.43 1.484 3.624.042.128.085.213.254.213h1.738c-.17-.085-.212-.213-.297-.34z"/><path id="fb0eh" d="M1023.95 7082.215h-.72v-9.892c.424-.086.805-.043 1.144.383 2.035 2.73 4.112 5.415 6.146 8.102.085.085.127.17.212.255v-8.783h.678v9.85c-.424.085-.805.042-1.102-.384-2.034-2.73-4.111-5.415-6.188-8.144-.042-.085-.127-.17-.17-.213v8.826z"/><path id="fb0ei" d="M959.01 7075.903h-.679v-.896c-.084-1.023-.635-1.663-1.568-1.961a6.542 6.542 0 0 0-3.942.085c-.762.256-1.271.725-1.398 1.578-.085.682.17 1.236.763 1.535.72.384 1.526.426 2.33.512 1.06.127 2.162.127 3.18.511.847.299 1.483.81 1.61 1.748.127 1.066-.17 1.962-1.102 2.601-.72.47-1.526.64-2.373.725-1.102.085-2.247.085-3.306-.298-1.568-.512-2.331-1.706-2.162-3.369H951c0 .299 0 .597.042.853.17 1.109.89 1.706 1.908 1.961 1.398.341 2.797.341 4.153-.042 1.145-.341 1.738-1.237 1.568-2.303-.084-.511-.381-.853-.805-1.108-.593-.341-1.271-.427-1.95-.512-1.06-.128-2.161-.298-3.22-.426-.128 0-.297-.086-.425-.128-.762-.256-1.313-.725-1.44-1.535-.128-.896.084-1.706.805-2.303.72-.597 1.61-.81 2.5-.895 1.06-.085 2.12-.085 3.137.298 1.187.47 1.822 1.322 1.865 2.601a2.428 2.428 0 0 0-.127.768z"/><path id="fb0ej" d="M960.63 7072.37h7.078v.597h-6.357v4.008h5.764c0 .213-.043.384-.043.597h-5.721v4.05h6.357v.597h-7.078v-9.849z"/><path id="fb0ek" d="M985.167 7076.925c-.042.213-.042.384-.085.597h-5.721v4.05h6.357v.597h-7.078v-9.849h7.078v.597h-6.357v4.008h5.806z"/><path id="fb0el" d="M997.244 7076.158h-.636v-.34c.043-1.408-.593-2.303-1.907-2.772-1.017-.341-2.077-.384-3.094-.086-1.356.427-2.162 1.365-2.543 2.73a6.272 6.272 0 0 0 0 3.07c.508 1.875 1.95 2.941 3.9 2.941.804 0 1.567-.128 2.288-.511.848-.47 1.314-1.194 1.356-2.175v-.64h.636c.297 1.194-.297 2.601-1.399 3.241-1.822 1.023-3.73 1.066-5.552 0-.89-.512-1.441-1.364-1.738-2.302-.466-1.493-.466-2.985.127-4.435.509-1.322 1.484-2.174 2.882-2.515 1.314-.299 2.586-.256 3.857.298 1.357.597 2.077 1.961 1.823 3.496z"/><path id="fb0em" d="M1007.337 7072.37v.597h-3.772v9.295h-.763v-9.252h-3.772v-.597c2.755-.043 5.552-.043 8.307-.043z"/><path id="fb0en" d="M970.2 7072.37h.763v9.252h5.807v.597h-6.57v-9.849z"/><path id="fb0eo" d="M1008.48 7072.37h.763v9.892h-.763v-9.892z"/><path id="fb0ep" d="M1019.664 7079.908c-.805 1.364-2.034 1.833-3.56 1.833-1.06 0-2.077-.298-2.84-1.108-.635-.64-.89-1.45-1.017-2.303-.127-1.065-.127-2.089.254-3.112.467-1.236 1.314-2.046 2.586-2.302 1.06-.256 2.161-.213 3.136.298 1.187.555 1.738 1.62 1.95 2.857.085.384.085.767.127 1.194 0 .937-.17 1.833-.636 2.643zm1.145-4.136c-.34-1.748-1.357-2.942-3.094-3.41-.763-.214-1.569-.214-2.374-.129-1.44.213-2.543.896-3.221 2.217-.89 1.706-.848 3.497-.212 5.245.424 1.194 1.314 1.961 2.5 2.388.89.298 1.823.34 2.756.17 1.44-.256 2.5-1.023 3.178-2.345.424-.853.594-1.748.636-2.686-.042-.47-.042-.938-.17-1.45z"/><path id="fb0eq" d="M933.5 7050.919l-3.73-1.919-25.77 12.962 3.73 1.919z"/><path id="fb0er" d="M938.67 7053.559l-3.773-1.919-25.727 12.92 3.73 1.918z"/><path id="fb0es" d="M943.71 7056.119l-3.773-1.919-25.727 12.962 3.73 1.919z"/><path id="fb0et" d="M904 7087.841l3.73 1.919v-25.881l-3.73-1.919z"/><path id="fb0eu" d="M909.17 7090.484l3.73 1.919v-25.924l-3.73-1.919z"/><path id="fb0ev" d="M914.21 7093.041l3.73 1.919v-25.881l-3.73-1.919z"/><path id="fb0ew" d="M923.62 7089.078v-17.311l21.49-10.703v-4.434l-25.77 12.962v25.924l25.77-12.834v-15.222l-15.216 7.675v4.306l10.935-5.457v6.438z"/></defs><g><g transform="translate(-904 -7049)"><g><use xlink:href="#fb0ea"/></g><g><use xlink:href="#fb0eb"/></g><g><use xlink:href="#fb0ec"/></g><g><use xlink:href="#fb0ed"/></g><g><use xlink:href="#fb0ee"/></g><g><use xlink:href="#fb0ef"/></g><g><use xlink:href="#fb0eg"/></g><g><use xlink:href="#fb0eh"/></g><g><use xlink:href="#fb0ei"/></g><g><use xlink:href="#fb0ej"/></g><g><use xlink:href="#fb0ek"/></g><g><use xlink:href="#fb0el"/></g><g><use xlink:href="#fb0em"/></g><g><use xlink:href="#fb0en"/></g><g><use xlink:href="#fb0eo"/></g><g><use xlink:href="#fb0ep"/></g><g><use fill="#5b0000" xlink:href="#fb0eq"/></g><g><use fill="#850200" xlink:href="#fb0er"/></g><g><use fill="#b41621" xlink:href="#fb0es"/></g><g><use fill="#340001" xlink:href="#fb0et"/></g><g><use fill="#500001" xlink:href="#fb0eu"/></g><g><use fill="#7f030f" xlink:href="#fb0ev"/></g><g><use fill="#d21128" xlink:href="#fb0ew"/></g></g></g></svg>