<svg xmlns="http://www.w3.org/2000/svg" xmlns:xlink="http://www.w3.org/1999/xlink" width="971" height="595" viewBox="0 0 971 595"><defs><path fill="#000000" id="m1gva" d="M1066 22.871L977.874-22 369 281.129 457.126 326z"/><path fill="#000000" id="m1gvb" d="M1187 85l-89.128-45L490 343l88.126 45z"/><path fill="#000000" id="m1gvc" d="M1308 143.871L1218.872 99 611 402.129 699.126 447z"/><path fill="#000000" id="m1gvd" d="M369 889l89 45V327l-89-45z"/><path fill="#000000" id="m1gve" d="M491 949.069L580 994V386.931L491 342z"/><path fill="#000000" id="m1gvf" d="M610 1010l89 45V448l-89-45z"/><path fill="#000000" id="m1gvg" d="M831.332 917.166V511.61L1340 260.886V157L730 460.667V1068l610-300.67V410.721L979.82 590.524v100.89l258.848-127.86v150.834z"/></defs><g><g clip-path="url(#clip-1761E76D-BB0D-4A01-85B2-9C52B4E9D380)" opacity=".1" transform="translate(-369 -155)"><g opacity=".1"><use xlink:href="#m1gva"/></g><g opacity=".1"><use xlink:href="#m1gvb"/></g><g opacity=".1"><use xlink:href="#m1gvc"/></g><g opacity=".1"><use xlink:href="#m1gvd"/></g><g opacity=".1"><use xlink:href="#m1gve"/></g><g opacity=".1"><use xlink:href="#m1gvf"/></g><g opacity=".1"><use xlink:href="#m1gvg"/></g></g></g></svg>