<svg xmlns="http://www.w3.org/2000/svg" xmlns:xlink="http://www.w3.org/1999/xlink" width="180" height="65" viewBox="0 0 180 65"><defs><path id="abfna" d="M238.282 1566.347c-.179-3.457-.12-6.914-.179-10.31 0-1.61 0-3.28-.12-4.888 0-.298.06-.418.358-.418h1.67c.297 0 .417.06.417.358-.18 4.887-.12 9.775-.12 14.722 0 1.252.06 2.444.12 3.695 0 .358-.12.417-.418.417-.655 0-1.43.18-1.967-.06-.536-.238-.834-.953-1.251-1.49a2190.087 2190.087 0 0 0-10.788-13.887c-.06-.06-.12-.178-.18-.238-.118.06-.118.12-.118.179.178 3.874.119 7.748.178 11.622 0 1.133.06 2.265.12 3.398 0 .298 0 .417-.358.417-.596-.06-1.132 0-1.728 0-.298 0-.358-.06-.358-.358.12-2.324.12-4.59.12-6.914 0-3.814.059-7.629-.12-11.443 0-.298.06-.477.417-.418.596.06 1.133 0 1.729 0 .238 0 .357.06.536.239 3.874 5.006 7.689 9.953 11.563 14.96.12.179.238.298.358.477.06-.06.06-.06.119-.06z"/><path id="abfnb" d="M181.711 1566.759c-2.086 2.801-5.066 3.278-8.285 3.04-2.205-.12-4.172-.895-5.781-2.504-1.311-1.37-2.086-2.98-2.384-4.828-.417-2.324-.298-4.649.596-6.854 1.073-2.682 3.04-4.41 5.9-5.066 2.623-.596 5.246-.477 7.749.596 2.622 1.073 3.993 3.516 3.636 6.377-.06.239-.12.358-.358.298h-1.55c-.298 0-.357-.06-.357-.357.06-.894 0-1.788-.358-2.563-.477-1.013-1.311-1.729-2.324-2.146-2.146-.894-4.351-.953-6.557-.12-1.907.716-3.099 2.147-3.695 4.114-.715 2.443-.715 4.827.179 7.211.953 2.504 2.86 3.875 5.543 4.113 1.55.179 3.04 0 4.47-.596 1.967-.834 3.04-2.623 2.861-4.709 0-.298-.179-.298-.358-.298h-5.185c-.358 0-.477-.119-.417-.476.06-.418-.12-.954.06-1.192.238-.239.774-.06 1.191-.06h6.497c.358 0 .417.06.417.417 0 2.742.06 5.484.12 8.285 0 .238-.06.298-.298.298-1.193.06-1.193.06-1.193-1.133 0-.536-.06-1.132-.06-1.668 0-.12-.059-.18-.059-.18z"/><path id="abfnc" d="M264.919 1560.266c-.06-3.04-.06-6.08-.179-9.12 0-.357.06-.476.477-.476h13.649c.417 0 .536.12.477.477-.06.357 0 .715 0 1.013 0 .238-.06.298-.298.298H267.72c-.357 0-.417.06-.417.417v5.841c0 .358.06.477.477.477h9.953c.358 0 .477.06.358.417-.06.358-.12.716-.12 1.073 0 .298-.118.358-.416.358h-9.894c-.239 0-.298.06-.298.298v6.199c0 .357.119.357.417.357h11.145c.418 0 .537.12.537.537-.06.357 0 .715 0 1.072 0 .18-.06.298-.239.239H265.336c-.358 0-.477-.12-.477-.477.06-2.92.06-5.96.06-9z"/><path id="abfnd" d="M254.07 1561.16c0-2.742-.06-5.483-.12-8.285 0-.298-.059-.417-.417-.417h-6.437c-.298 0-.417-.06-.357-.417.06-.477-.18-1.073.06-1.371.238-.298.893-.06 1.37-.06h14.96c.418 0 .537.12.477.477-.06.298-.06.656 0 .954.06.357-.119.417-.417.417h-6.258c-.477 0-.537.12-.537.536-.119 5.424-.06 10.908.06 16.332 0 .357-.06.476-.477.476-.596-.06-1.192 0-1.788 0-.298 0-.358-.119-.358-.357.12-2.742.18-5.484.239-8.285z"/><path id="abfne" d="M243.46 1560.266c0-3.04 0-6.08-.12-9.119 0-.298.06-.417.417-.417.596.06 1.252 0 1.848 0 .298 0 .357.06.357.358-.06 2.622-.119 5.245-.119 7.927 0 3.516 0 6.973.12 10.49 0 .298-.06.417-.418.417-.596-.06-1.192 0-1.788 0-.357 0-.417-.06-.417-.417.06-2.682.12-5.364.12-8.047v-1.192z"/><path id="abfnf" d="M193.278 1560.028h-3.695c-.299 0-.358-.06-.358-.357v-6.795c0-.298.12-.358.358-.358h6.198c.596 0 1.192.06 1.729.12 1.907.357 2.741 1.251 2.801 3.218 0 .477 0 .954-.06 1.43-.298 1.49-1.31 2.325-3.099 2.564-1.311.238-2.682.119-3.874.178zm9.775 9.537c-.18-.835-.239-1.61-.298-2.444-.06-.954 0-1.907-.12-2.801-.238-1.55-1.013-2.623-2.562-3.1-.358-.119-.716-.178-1.073-.238l.06-.06c.119-.06.238-.06.417-.06 1.55-.357 2.562-1.25 3.04-2.74.357-1.133.357-2.325.178-3.458-.298-1.61-1.252-2.682-2.742-3.278-1.013-.417-2.086-.596-3.159-.596h-9.655c-.298 0-.358.12-.298.358.06.834.06 1.668.06 2.443.119 5.305.119 10.61-.06 15.914 0 .358.119.417.417.417.536 0 1.132-.06 1.669 0 .417 0 .536-.06.536-.476-.06-2.384-.06-4.709-.119-7.093 0-.358.12-.417.417-.417h3.1c1.37 0 2.801-.12 4.172.119 2.086.298 3.278 1.132 3.338 3.516 0 1.371 0 2.742.119 4.113 0 .238.06.298.357.298h2.027c.179-.12.238-.238.179-.417z"/><path id="abfng" d="M216.122 1562.283h-6.69c1.254-3.156 2.389-6.312 3.584-9.586.239.654.478 1.25.657 1.786a183.316 183.316 0 0 0 2.688 7.383c.12.297.18.417-.239.417zm5.829 6.983c-1.192-2.742-2.384-5.483-3.517-8.285a284.59 284.59 0 0 1-3.755-9.953c-.119-.239-.238-.358-.477-.358h-2.086c-.357 0-.476.12-.536.417-1.848 5.066-3.755 10.133-5.9 15.02-.537 1.252-1.074 2.444-1.61 3.695h2.086c.298 0 .417-.06.537-.357.655-1.669 1.37-3.398 2.026-5.066.12-.239.238-.358.536-.358h7.63c.298 0 .476.06.596.358.655 1.728 1.37 3.397 2.086 5.066.06.179.119.298.357.298h2.444c-.238-.12-.298-.298-.417-.477z"/><path id="abfnh" d="M268.673 1586.427h-1.013V1572.6c.596-.12 1.132-.06 1.61.536 2.86 3.815 5.78 7.57 8.642 11.325.119.119.178.238.298.357v-12.278h.953v13.768c-.596.12-1.132.06-1.55-.536-2.86-3.815-5.78-7.57-8.701-11.384a1.3 1.3 0 0 0-.239-.298v12.337z"/><path id="abfni" d="M177.362 1577.61h-.954v-1.252c-.12-1.43-.894-2.324-2.205-2.741a9.252 9.252 0 0 0-5.543.119c-1.073.357-1.788 1.013-1.967 2.205-.12.954.238 1.729 1.073 2.146 1.013.536 2.145.596 3.278.715 1.49.179 3.04.179 4.47.715 1.192.417 2.086 1.133 2.265 2.444.179 1.49-.239 2.742-1.55 3.636-1.013.655-2.146.894-3.338 1.013-1.55.12-3.159.12-4.649-.417-2.205-.715-3.278-2.384-3.04-4.709h.895c0 .417 0 .835.06 1.192.238 1.55 1.25 2.384 2.681 2.742 1.967.477 3.934.477 5.841-.06 1.61-.476 2.444-1.728 2.206-3.218-.12-.715-.537-1.192-1.133-1.55-.834-.477-1.788-.596-2.741-.715-1.49-.179-3.04-.417-4.53-.596-.179 0-.417-.12-.596-.179-1.073-.358-1.848-1.013-2.027-2.146-.179-1.251.12-2.384 1.133-3.218 1.013-.835 2.265-1.133 3.516-1.252 1.49-.12 2.98-.12 4.41.417 1.67.656 2.564 1.848 2.623 3.636-.119.358-.178.715-.178 1.073z"/><path id="abfnj" d="M179.63 1572.66h9.954v.834h-8.94v5.603h8.105c0 .298-.06.537-.06.835h-8.046v5.662h8.94v.834h-9.953v-13.768z"/><path id="abfnk" d="M214.139 1579.037c-.06.298-.06.537-.12.835h-8.046v5.662h8.94v.834h-9.953V1572.6h9.954v.834h-8.94v5.603h8.165z"/><path id="abfnl" d="M231.13 1577.971h-.894v-.477c.06-1.967-.835-3.218-2.682-3.874-1.43-.477-2.92-.536-4.351-.119-1.908.596-3.04 1.907-3.576 3.815a8.717 8.717 0 0 0 0 4.29c.715 2.623 2.741 4.114 5.483 4.114 1.133 0 2.205-.18 3.219-.716 1.192-.655 1.847-1.669 1.907-3.04v-.893h.894c.417 1.668-.417 3.635-1.967 4.53-2.563 1.43-5.245 1.49-7.808 0-1.252-.716-2.026-1.908-2.444-3.22-.655-2.085-.655-4.171.18-6.198.714-1.848 2.085-3.04 4.052-3.516 1.848-.418 3.636-.358 5.424.417 1.907.834 2.92 2.741 2.563 4.887z"/><path id="abfnm" d="M245.312 1572.66v.834h-5.305v12.994h-1.072v-12.934h-5.305v-.834c3.874-.06 7.808-.06 11.682-.06z"/><path id="abfnn" d="M193.1 1572.66h1.073v12.934h8.165v.834H193.1v-13.768z"/><path id="abfno" d="M246.92 1572.66h1.073v13.828h-1.073v-13.828z"/><path id="abfnp" d="M262.655 1583.22c-1.132 1.91-2.86 2.566-5.006 2.566-1.49 0-2.92-.418-3.994-1.551-.894-.895-1.251-2.028-1.43-3.221-.179-1.491-.179-2.923.358-4.355.655-1.73 1.847-2.863 3.635-3.22 1.49-.359 3.04-.299 4.41.417 1.67.775 2.445 2.267 2.743 3.996.119.537.119 1.074.178 1.67 0 1.313-.238 2.566-.894 3.699zm1.61-5.789c-.477-2.443-1.908-4.112-4.351-4.768-1.073-.298-2.206-.298-3.338-.179-2.027.298-3.576 1.252-4.53 3.1-1.252 2.384-1.192 4.887-.298 7.33.596 1.67 1.848 2.743 3.517 3.339 1.251.417 2.563.477 3.874.238 2.026-.358 3.516-1.43 4.47-3.278.596-1.192.834-2.444.894-3.755-.06-.656-.06-1.311-.238-2.027z"/><path id="abfnq" d="M141.483 1542.682l-5.245-2.682L100 1558.12l5.245 2.681z"/><path id="abfnr" d="M148.753 1546.382l-5.304-2.682-36.179 18.06 5.245 2.682z"/><path id="abfns" d="M155.843 1549.952l-5.304-2.682-36.179 18.12 5.245 2.681z"/><path id="abfnt" d="M100 1594.299l5.245 2.682v-36.179L100 1558.12z"/><path id="abfnu" d="M107.27 1597.988l5.245 2.683v-36.239l-5.245-2.682z"/><path id="abfnv" d="M114.36 1601.569l5.245 2.682v-36.179l-5.245-2.682z"/><path id="abfnw" d="M127.6 1596.028v-24.2l30.218-14.96v-6.198l-36.238 18.12v36.238l36.238-17.94v-21.278l-21.397 10.728v6.02l15.378-7.63v9z"/></defs><g><g transform="translate(-100 -1540)"><g><use fill="#fff" xlink:href="#abfna"/></g><g><use fill="#fff" xlink:href="#abfnb"/></g><g><use fill="#fff" xlink:href="#abfnc"/></g><g><use fill="#fff" xlink:href="#abfnd"/></g><g><use fill="#fff" xlink:href="#abfne"/></g><g><use fill="#fff" xlink:href="#abfnf"/></g><g><use fill="#fff" xlink:href="#abfng"/></g><g><use fill="#fff" xlink:href="#abfnh"/></g><g><use fill="#fff" xlink:href="#abfni"/></g><g><use fill="#fff" xlink:href="#abfnj"/></g><g><use fill="#fff" xlink:href="#abfnk"/></g><g><use fill="#fff" xlink:href="#abfnl"/></g><g><use fill="#fff" xlink:href="#abfnm"/></g><g><use fill="#fff" xlink:href="#abfnn"/></g><g><use fill="#fff" xlink:href="#abfno"/></g><g><use fill="#fff" xlink:href="#abfnp"/></g><g><use fill="#fff" xlink:href="#abfnq"/></g><g><use fill="#fff" xlink:href="#abfnr"/></g><g><use fill="#fff" xlink:href="#abfns"/></g><g><use fill="#fff" xlink:href="#abfnt"/></g><g><use fill="#fff" xlink:href="#abfnu"/></g><g><use fill="#fff" xlink:href="#abfnv"/></g><g><use fill="#fff" xlink:href="#abfnw"/></g></g></g></svg>