<svg xmlns="http://www.w3.org/2000/svg" xmlns:xlink="http://www.w3.org/1999/xlink" width="1204" height="400" viewBox="0 0 1204 400"><defs><path id="j1aba" d="M982 3017.702L872.759 2962 118 3338.298 227.241 3394z"/><path id="j1abb" d="M1132 3094.862L1021.517 3039 268 3415.138 377.241 3471z"/><path id="j1abc" d="M1282 3167.702L1171.517 3112 418 3488.298 527.241 3544z"/><path id="j1abd" d="M118 4091.233L228 4147v-752.233L118 3339z"/><path id="j1abe" d="M269 4167.319L379 4223v-752.319L269 3415z"/><path id="j1abf" d="M418 4242.233L528 4298v-752.233L418 3490z"/><path id="j1abg" d="M691.586 4126.906v-503.049L1322 3312.86V3184l-756 376.667V4314l756-372.95V3498.715L875.612 3721.74v125.143l320.802-158.597v187.095z"/></defs><g><g opacity=".02" transform="translate(-118 -3438)"><use fill="#ffffff" xlink:href="#j1aba"/></g><g opacity=".02" transform="translate(-118 -3438)"><use fill="#fff" xlink:href="#j1abb"/></g><g opacity=".02" transform="translate(-118 -3438)"><use fill="#fff" xlink:href="#j1abc"/></g><g opacity=".02" transform="translate(-118 -3438)"><use fill="#fff" xlink:href="#j1abd"/></g><g opacity=".02" transform="translate(-118 -3438)"><use fill="#fff" xlink:href="#j1abe"/></g><g opacity=".02" transform="translate(-118 -3438)"><use fill="#fff" xlink:href="#j1abf"/></g><g opacity=".02" transform="translate(-118 -3438)"><use fill="#fff" xlink:href="#j1abg"/></g></g></svg>