<svg xmlns="http://www.w3.org/2000/svg" xmlns:xlink="http://www.w3.org/1999/xlink" width="32" height="32" viewBox="0 0 32 32"><defs><path id="vvvra" d="M996.308 25.25l2.067.667-.172 5.333-1.235-.188zm5.51-1.5l1.413 3.413-4.154 3.337.157-4.967zm-9.19-1.5c.805.91 1.574 1.863 2.387 2.764l.61 5.486-3.471-2.372zm-3.427-3l2.26 1.909-.455 5.591-2.314-3.81zm14.235-.75l1.872 5.408-1.343 2.842-1.427-3.377zm-5.754-3.75L992.466 20l-2.39-1.919 4.507-2.992zm1.042 0l3.814 2.288-1.038 5.452-3.075 2.01-2.885-.897-2.694-2.949zm.043-.75zm-4.52.492a.386.386 0 0 0-.173.064l-5.198 3.467a.46.46 0 0 0-.192.316l-.678 4.705a.492.492 0 0 0 .064.33l3.171 4.951c.032.054.073.1.122.134l4.98 3.214c.047.032.1.054.154.063l1.803.26c.1.015.205-.013.288-.077l5.435-4.198a.44.44 0 0 0 .127-.155l1.804-3.749a.498.498 0 0 0 .019-.372l-2.257-6.435a.444.444 0 0 0-.186-.232l-4.527-2.729c-.083-.065-.156-.041-.236-.049z"/></defs><g><g opacity="1" transform="translate(-988 -14)"><use fill="#fff" xlink:href="#vvvra"/></g></g></svg>