<svg xmlns="http://www.w3.org/2000/svg" xmlns:xlink="http://www.w3.org/1999/xlink" width="971" height="595"><defs><path id="a" d="M1066 22.871L977.874-22 369 281.129 457.126 326z"/><path id="b" d="M1187 85l-89.128-45L490 343l88.126 45z"/><path id="c" d="M1308 143.871L1218.872 99 611 402.129 699.126 447z"/><path id="d" d="M369 889l89 45V327l-89-45z"/><path id="e" d="M491 949.069L580 994V386.931L491 342z"/><path id="f" d="M610 1010l89 45V448l-89-45z"/><path id="g" d="M831.332 917.166V511.61L1340 260.886V157L730 460.667V1068l610-300.67V410.721L979.82 590.524v100.89l258.848-127.86v150.834z"/></defs><g clip-path="url(#clip-1761E76D-BB0D-4A01-85B2-9C52B4E9D380)" opacity=".1" transform="translate(-369 -155)"><use xlink:href="#a" opacity=".1"/><use xlink:href="#b" opacity=".1"/><use xlink:href="#c" opacity=".1"/><use xlink:href="#d" opacity=".1"/><use xlink:href="#e" opacity=".1"/><use xlink:href="#f" opacity=".1"/><use xlink:href="#g" opacity=".1"/></g></svg>