<svg xmlns="http://www.w3.org/2000/svg" xmlns:xlink="http://www.w3.org/1999/xlink" width="200" height="73" viewBox="0 0 200 73"><defs><path id="v85da" d="M330.638 70.274c-.2-3.841-.133-7.682-.2-11.457 0-1.788 0-3.643-.132-5.43 0-.332.067-.464.398-.464h1.854c.331 0 .464.066.464.397-.199 5.43-.133 10.861-.133 16.358 0 1.39.067 2.715.133 4.106 0 .397-.133.463-.464.463-.728 0-1.59.199-2.185-.066-.596-.265-.927-1.06-1.391-1.656a2433.147 2433.147 0 0 0-11.987-15.43c-.066-.066-.132-.199-.198-.265-.133.066-.133.132-.133.199.199 4.304.133 8.609.199 12.914 0 1.258.066 2.516.132 3.774 0 .332 0 .464-.397.464-.662-.066-1.258 0-1.92 0-.332 0-.398-.066-.398-.397.132-2.583.132-5.1.132-7.683 0-4.238.067-8.476-.132-12.715 0-.33.066-.53.464-.463.662.066 1.258 0 1.92 0 .265 0 .397.066.596.265 4.305 5.562 8.543 11.06 12.848 16.622.132.199.265.331.397.53.066-.066.066-.066.133-.066z"/><path id="v85db" d="M267.795 70.74c-2.318 3.112-5.63 3.642-9.206 3.377-2.45-.132-4.635-.993-6.423-2.781-1.457-1.523-2.318-3.311-2.65-5.364-.463-2.583-.33-5.166.663-7.616 1.192-2.98 3.377-4.901 6.556-5.63 2.914-.662 5.828-.53 8.61.663 2.913 1.192 4.436 3.907 4.04 7.086-.067.265-.133.397-.398.331h-1.722c-.331 0-.397-.066-.397-.397.066-.994 0-1.987-.398-2.848-.53-1.126-1.457-1.92-2.583-2.384-2.384-.994-4.834-1.06-7.284-.133-2.12.795-3.444 2.384-4.106 4.57-.795 2.715-.795 5.364.198 8.013 1.06 2.782 3.18 4.305 6.16 4.57 1.721.198 3.377 0 4.966-.663 2.186-.927 3.378-2.913 3.179-5.231 0-.331-.199-.331-.397-.331h-5.762c-.397 0-.53-.133-.464-.53.067-.464-.132-1.06.067-1.325.265-.265.86-.066 1.324-.066h7.219c.397 0 .463.066.463.464 0 3.046.067 6.092.133 9.205 0 .265-.066.331-.331.331-1.325.066-1.325.066-1.325-1.258 0-.596-.066-1.259-.066-1.855 0-.132-.066-.198-.066-.198z"/><path id="v85dc" d="M360.249 63.512c-.067-3.377-.067-6.755-.199-10.132 0-.398.066-.53.53-.53h15.165c.464 0 .596.132.53.53-.066.397 0 .795 0 1.126 0 .265-.066.33-.331.33h-12.583c-.397 0-.463.067-.463.464v6.49c0 .398.066.53.53.53h11.06c.396 0 .529.066.396.464-.066.397-.132.794-.132 1.192 0 .331-.132.397-.464.397h-10.993c-.265 0-.331.066-.331.331v6.888c0 .397.132.397.463.397h12.385c.463 0 .596.133.596.596-.067.397 0 .795 0 1.192 0 .199-.067.331-.265.265H360.712c-.397 0-.53-.132-.53-.53.067-3.245.067-6.622.067-10z"/><path id="v85dd" d="M348.19 64.512c0-3.046-.066-6.093-.133-9.205 0-.331-.066-.464-.463-.464h-7.153c-.33 0-.463-.066-.397-.463.066-.53-.199-1.192.066-1.523.265-.332.994-.067 1.524-.067h16.622c.464 0 .596.133.53.53a2.85 2.85 0 0 0 0 1.06c.066.397-.133.463-.464.463h-6.953c-.53 0-.596.133-.596.596-.133 6.027-.067 12.12.066 18.146 0 .397-.066.53-.53.53-.662-.066-1.324 0-1.987 0-.33 0-.397-.133-.397-.398.132-3.046.199-6.092.265-9.205z"/><path id="v85de" d="M336.402 63.516c0-3.377 0-6.755-.132-10.132 0-.332.066-.464.464-.464.662.066 1.39 0 2.053 0 .33 0 .397.066.397.397-.066 2.914-.133 5.828-.133 8.808 0 3.908 0 7.749.133 11.656 0 .331-.066.463-.464.463-.662-.066-1.324 0-1.986 0-.398 0-.464-.066-.464-.463.066-2.98.132-5.96.132-8.94v-1.325z"/><path id="v85df" d="M280.645 63.255h-4.106c-.33 0-.397-.066-.397-.397v-7.55c0-.331.133-.397.397-.397h6.888c.662 0 1.324.066 1.92.132 2.12.397 3.047 1.39 3.113 3.576 0 .53 0 1.06-.066 1.59-.331 1.655-1.457 2.582-3.444 2.847-1.457.265-2.98.133-4.305.199zm10.861 10.596c-.198-.927-.265-1.788-.33-2.715-.067-1.06 0-2.12-.133-3.113-.265-1.722-1.126-2.914-2.848-3.444-.397-.132-.795-.198-1.192-.264l.066-.067c.133-.066.265-.066.464-.066 1.722-.397 2.847-1.39 3.377-3.046.398-1.259.398-2.583.199-3.841-.331-1.788-1.39-2.98-3.046-3.643-1.126-.463-2.318-.662-3.51-.662h-10.729c-.33 0-.397.132-.33.397.065.928.065 1.855.065 2.716.133 5.894.133 11.788-.066 17.682 0 .397.133.463.464.463.596 0 1.258-.066 1.854 0 .464 0 .596-.066.596-.53-.066-2.649-.066-5.231-.132-7.88 0-.398.132-.464.463-.464h3.444c1.523 0 3.112-.132 4.636.133 2.317.33 3.642 1.258 3.708 3.907 0 1.523 0 3.046.133 4.57 0 .264.066.33.397.33h2.252c.198-.132.265-.264.198-.463z"/><path id="v85dg" d="M306.007 65.764h-7.417c1.391-3.51 2.65-7.02 3.974-10.662.265.728.53 1.39.728 1.986.927 2.716 1.92 5.497 2.98 8.212.133.331.199.464-.265.464zm6.49 7.748c-1.324-3.046-2.648-6.092-3.907-9.205a316.207 316.207 0 0 1-4.172-11.06c-.132-.265-.265-.397-.53-.397h-2.318c-.397 0-.53.132-.596.464-2.053 5.629-4.172 11.258-6.556 16.688-.596 1.391-1.192 2.716-1.788 4.106h2.318c.331 0 .463-.066.596-.397.728-1.854 1.523-3.775 2.252-5.63.132-.264.264-.397.596-.397h8.476c.332 0 .53.067.663.398.728 1.92 1.523 3.775 2.318 5.629.066.199.132.331.397.331h2.715c-.265-.132-.331-.331-.463-.53z"/><path id="v85dh" d="M364.416 92.59h-1.126V77.226c.662-.132 1.258-.066 1.788.596 3.179 4.239 6.424 8.41 9.603 12.583.132.132.198.265.33.397V77.16h1.06v15.298c-.662.132-1.258.066-1.721-.596-3.18-4.238-6.424-8.41-9.67-12.649-.066-.132-.198-.265-.264-.331V92.59z"/><path id="v85di" d="M262.956 82.787h-1.06v-1.391c-.132-1.59-.993-2.583-2.45-3.046a10.28 10.28 0 0 0-6.159.132c-1.192.397-1.986 1.126-2.185 2.45-.133 1.06.265 1.92 1.192 2.384 1.126.596 2.384.663 3.642.795 1.656.199 3.378.199 4.967.795 1.325.463 2.318 1.258 2.517 2.715.198 1.656-.265 3.046-1.722 4.04-1.126.728-2.384.993-3.709 1.126-1.722.132-3.51.132-5.165-.464-2.45-.795-3.643-2.649-3.378-5.232h.994c0 .464 0 .927.066 1.325.265 1.722 1.39 2.649 2.98 3.046 2.185.53 4.37.53 6.49-.066 1.788-.53 2.715-1.92 2.45-3.576-.132-.795-.596-1.325-1.258-1.722-.927-.53-1.987-.662-3.046-.795-1.656-.198-3.378-.463-5.033-.662-.199 0-.464-.133-.663-.199-1.192-.397-2.053-1.126-2.251-2.384-.199-1.39.132-2.649 1.258-3.576s2.517-1.258 3.907-1.39c1.656-.133 3.312-.133 4.901.463 1.854.728 2.848 2.053 2.914 4.04a3.75 3.75 0 0 0-.199 1.192z"/><path id="v85dj" d="M265.48 77.29h11.06v.927h-9.934v6.225h9.006c0 .331-.066.596-.066.927h-8.94v6.292h9.934v.927h-11.06V77.29z"/><path id="v85dk" d="M303.819 84.382c-.067.331-.067.596-.133.927h-8.94v6.292h9.934v.927h-11.06V77.23h11.06v.927h-9.934v6.225h9.073z"/><path id="v85dl" d="M322.7 83.19h-.993v-.53c.066-2.186-.928-3.577-2.98-4.305-1.59-.53-3.246-.596-4.835-.133-2.12.662-3.378 2.12-3.974 4.239a9.685 9.685 0 0 0 0 4.768c.795 2.914 3.047 4.57 6.093 4.57 1.258 0 2.45-.2 3.576-.795 1.325-.729 2.053-1.855 2.12-3.378v-.993h.993c.463 1.854-.464 4.04-2.186 5.033-2.847 1.59-5.827 1.656-8.675 0-1.39-.795-2.252-2.12-2.715-3.576-.729-2.318-.729-4.636.198-6.888.795-2.053 2.318-3.377 4.504-3.907 2.053-.464 4.04-.397 6.026.464 2.12.927 3.245 3.046 2.848 5.43z"/><path id="v85dm" d="M338.46 77.29v.927h-5.894v14.437h-1.192v-14.37h-5.894v-.928c4.305-.066 8.675-.066 12.98-.066z"/><path id="v85dn" d="M280.44 77.29h1.192v14.37h9.073v.928H280.44V77.29z"/><path id="v85do" d="M340.25 77.29h1.192v15.364h-1.192V77.29z"/><path id="v85dp" d="M357.73 89.013c-1.258 2.12-3.178 2.848-5.562 2.848-1.656 0-3.245-.464-4.438-1.722-.993-.993-1.39-2.252-1.589-3.576-.199-1.656-.199-3.245.397-4.834.729-1.921 2.053-3.18 4.04-3.577 1.656-.397 3.378-.33 4.9.464 1.855.86 2.716 2.516 3.047 4.437.133.596.133 1.192.199 1.854 0 1.457-.265 2.848-.994 4.106zm1.789-6.424c-.53-2.715-2.12-4.57-4.835-5.298-1.192-.33-2.45-.33-3.709-.198-2.251.33-3.973 1.39-5.033 3.443-1.39 2.65-1.324 5.43-.33 8.146.661 1.854 2.052 3.047 3.907 3.709 1.39.463 2.847.53 4.304.265 2.252-.398 3.907-1.59 4.967-3.643.662-1.324.927-2.715.993-4.172-.066-.728-.066-1.457-.264-2.252z"/><path id="v85dq" d="M223.093 43.98L217.265 41 177 61.132l5.828 2.98z"/><path id="v85dr" d="M231.173 48.09l-5.894-2.98-40.199 20.066 5.828 2.98z"/><path id="v85ds" d="M239.053 52.06l-5.894-2.98-40.199 20.132 5.828 2.98z"/><path id="v85dt" d="M177 101.329l5.828 2.98V64.11L177 61.13z"/><path id="v85du" d="M185.08 105.435l5.828 2.98V68.15l-5.828-2.98z"/><path id="v85dv" d="M192.96 109.409l5.828 2.98V72.19l-5.828-2.98z"/><path id="v85dw" d="M207.659 103.247V76.36l33.576-16.623V52.85L200.97 72.982v40.266l40.265-19.934V69.672l-23.775 11.92v6.688l17.086-8.476v10z"/></defs><g><g transform="translate(-177 -41)"><g><use xlink:href="#v85da"/></g><g><use xlink:href="#v85db"/></g><g><use xlink:href="#v85dc"/></g><g><use xlink:href="#v85dd"/></g><g><use xlink:href="#v85de"/></g><g><use xlink:href="#v85df"/></g><g><use xlink:href="#v85dg"/></g><g><use xlink:href="#v85dh"/></g><g><use xlink:href="#v85di"/></g><g><use xlink:href="#v85dj"/></g><g><use xlink:href="#v85dk"/></g><g><use xlink:href="#v85dl"/></g><g><use xlink:href="#v85dm"/></g><g><use xlink:href="#v85dn"/></g><g><use xlink:href="#v85do"/></g><g><use xlink:href="#v85dp"/></g><g><use fill="#5b0000" xlink:href="#v85dq"/></g><g><use fill="#850200" xlink:href="#v85dr"/></g><g><use fill="#b41621" xlink:href="#v85ds"/></g><g><use fill="#340001" xlink:href="#v85dt"/></g><g><use fill="#500001" xlink:href="#v85du"/></g><g><use fill="#7f030f" xlink:href="#v85dv"/></g><g><use fill="#d21128" xlink:href="#v85dw"/></g></g></g></svg>